<?xml version="1.0" standalone="no"?>
<!DOCTYPE svg PUBLIC "-//W3C//DTD SVG 20010904//EN"
 "http://www.w3.org/TR/2001/REC-SVG-20010904/DTD/svg10.dtd">
<svg version="1.0" xmlns="http://www.w3.org/2000/svg"
 width="292.000000pt" height="605.000000pt" viewBox="0 0 292.000000 605.000000"
 preserveAspectRatio="xMidYMid meet">

<g transform="translate(0.000000,605.000000) scale(0.100000,-0.100000)"
fill="#000000" stroke="none">
<path d="M1160 6040 c-249 -47 -520 -288 -605 -537 -32 -96 -44 -188 -55 -417
-15 -323 -57 -491 -163 -645 -36 -52 -92 -80 -162 -81 l-50 0 29 -15 c65 -34
269 -10 376 45 22 11 41 16 44 12 7 -12 -108 -162 -226 -292 -176 -194 -227
-261 -272 -351 -56 -110 -73 -201 -57 -302 13 -88 45 -183 60 -179 6 1 12 -6
12 -15 1 -10 5 20 9 68 5 59 15 102 33 142 30 66 87 148 97 142 4 -3 -10 -52
-31 -110 -107 -289 -135 -573 -80 -789 22 -84 112 -266 141 -284 17 -10 17 -8
0 42 -23 63 -34 211 -22 281 8 49 8 49 15 -45 24 -301 82 -494 187 -612 48
-55 48 -58 15 -243 -32 -175 -43 -406 -26 -525 7 -47 28 -126 47 -176 19 -51
34 -108 34 -128 0 -20 4 -44 10 -54 5 -9 16 -46 25 -82 8 -36 23 -76 33 -90
10 -14 28 -61 41 -105 30 -106 136 -387 208 -555 l59 -135 554 0 555 0 17 165
c9 91 22 249 29 351 l12 187 48 -1 c54 -1 71 10 102 66 50 91 58 111 55 141
-3 28 -6 31 -35 30 -27 -2 -33 2 -33 18 0 15 -5 18 -20 13 -24 -8 -27 12 -5
41 21 28 18 77 -11 211 -28 132 -27 155 22 343 34 134 48 258 34 309 -11 40
-10 42 22 69 133 109 207 201 280 345 65 130 107 258 115 351 3 42 10 76 14
76 5 0 9 -53 9 -118 0 -89 -4 -123 -15 -139 -9 -12 -11 -24 -6 -27 14 -9 97
100 130 169 43 90 62 177 68 315 6 142 -14 268 -67 410 -15 44 -25 82 -20 85
4 3 31 -18 59 -47 45 -46 69 -84 97 -153 14 -37 17 21 4 106 -38 261 -168 448
-452 646 -245 171 -379 305 -454 455 -36 72 -36 100 2 80 76 -40 278 -53 377
-25 l60 16 -45 14 c-54 15 -117 77 -170 164 -70 116 -122 280 -188 594 -84
404 -188 569 -435 691 -143 70 -323 105 -435 84z m220 -24 c158 -34 308 -113
410 -217 58 -58 120 -161 120 -197 0 -11 7 -28 16 -37 21 -20 48 -108 74 -235
34 -166 21 -163 -35 10 -30 92 -84 219 -100 238 -2 2 -50 -13 -107 -32 -58
-20 -112 -36 -120 -36 -12 0 -18 -14 -23 -47 -4 -27 -13 -61 -21 -78 -13 -29
-14 -27 -11 40 l2 70 -50 -3 c-27 -2 -59 -6 -69 -9 -14 -4 -18 -1 -13 11 4 9
3 26 -2 38 -8 21 -9 20 -16 -14 -4 -21 -12 -38 -19 -38 -6 0 -21 -3 -33 -6
-19 -5 -22 -2 -25 32 -4 51 -24 54 -32 5 -3 -22 -11 -43 -17 -47 -10 -6 -6 70
7 134 2 12 1 22 -4 22 -5 0 -14 -36 -22 -81 -16 -104 -16 -103 -227 -103
l-161 1 5 -36 c3 -20 9 -51 15 -69 16 -52 2 -48 -18 5 -27 68 -25 178 4 271
l23 72 152 0 c174 0 360 15 460 36 72 15 167 51 167 64 0 12 -84 86 -141 124
-30 19 -81 42 -114 51 -204 52 -512 -35 -683 -194 -37 -35 -36 -46 7 -54 l29
-6 -24 -68 c-13 -37 -24 -80 -24 -95 0 -57 -16 -69 -65 -46 -22 10 -25 16 -19
47 4 27 3 32 -5 21 -6 -8 -11 -23 -11 -32 0 -21 -4 -22 -30 -8 -11 6 -21 6
-24 1 -13 -21 -36 -160 -51 -307 -9 -88 -22 -184 -30 -214 -16 -68 -16 -66 -5
150 13 268 38 363 132 512 105 166 341 339 488 358 90 12 171 10 240 -4z
m-465 -345 c-26 -62 -45 -124 -51 -169 -5 -42 -10 -52 -23 -48 -9 2 -28 7 -43
10 -26 6 -27 8 -22 54 7 56 32 153 44 167 5 6 29 9 55 7 38 -3 45 -7 40 -21z
m422 -247 c-3 -31 -14 -89 -24 -129 l-18 -73 -53 -11 c-30 -6 -58 -8 -63 -6
-4 3 -13 -4 -19 -15 -10 -18 -9 -19 16 -10 42 16 164 31 200 24 31 -6 33 -9
28 -33 -4 -14 -7 -27 -8 -27 -1 -1 -28 -4 -61 -7 -39 -4 -55 -3 -45 3 10 7 4
8 -20 4 -42 -8 -63 -23 -23 -17 21 3 17 -1 -17 -16 -25 -11 -40 -20 -33 -20 6
-1 9 -10 6 -21 -5 -20 11 -28 22 -10 3 5 16 15 28 21 22 12 22 12 3 -10 -41
-46 -6 -172 59 -210 28 -16 35 -17 35 -6 0 14 18 20 49 16 7 -2 10 2 7 8 -4 6
0 21 8 33 26 40 40 116 27 144 -10 23 -10 24 10 13 14 -7 19 -17 16 -31 -3
-11 -3 -26 0 -34 4 -12 8 -11 20 6 19 26 77 29 69 3 -3 -10 -10 -54 -16 -98
-15 -106 -38 -193 -60 -230 -9 -16 -16 -35 -13 -42 6 -15 -57 -139 -96 -187
-34 -43 -40 -56 -15 -35 9 7 23 14 32 15 8 2 41 28 73 60 l58 57 -6 -89 c-6
-103 15 -223 47 -265 l19 -27 -52 -49 c-29 -27 -119 -93 -202 -148 -98 -65
-175 -125 -224 -174 l-74 -75 6 105 c7 124 27 188 78 249 20 25 44 59 52 76
21 41 39 154 36 223 l-3 54 65 37 c66 39 199 154 199 172 0 5 -33 -21 -74 -59
-86 -80 -216 -157 -261 -156 -40 1 -163 78 -233 147 -49 47 -92 110 -92 136 0
5 -22 71 -50 145 -27 74 -50 137 -50 140 0 15 21 1 33 -21 14 -26 14 -26 13
19 -1 65 18 80 21 16 2 -32 13 -69 30 -102 26 -48 31 -52 62 -51 58 2 90 67
78 158 -4 27 -2 47 6 55 9 10 7 16 -11 31 -15 13 -18 20 -10 23 7 3 -6 6 -29
6 -48 1 -58 17 -15 24 25 4 25 4 -5 6 -26 1 -33 5 -33 21 0 25 41 28 60 5 9
-11 16 -12 26 -4 10 8 21 7 43 -4 l29 -14 -29 44 c-26 42 -27 47 -12 69 8 13
47 39 85 59 59 29 82 35 134 35 35 0 64 -2 64 -5 0 -13 -36 -93 -52 -117 -10
-15 -14 -29 -9 -32 5 -3 18 9 29 27 12 17 39 58 61 91 22 32 45 78 52 102 8
24 15 44 18 44 2 0 1 -25 -2 -56z m88 -141 l-7 -63 -48 0 -48 0 43 66 c24 36
47 77 51 92 l8 27 4 -30 c2 -16 1 -58 -3 -92z m-630 -73 c-3 -4 -14 -10 -25
-13 -18 -5 -20 0 -20 38 0 23 3 58 7 76 6 33 7 32 24 -30 10 -35 16 -67 14
-71z m548 70 c-21 -37 -26 -33 -12 8 6 18 15 29 20 26 5 -3 2 -18 -8 -34z
m-470 -68 c-27 -7 -43 7 -43 37 0 60 11 64 35 14 17 -38 19 -49 8 -51z m74
-11 c-15 -6 -36 22 -43 59 l-6 35 29 -45 c16 -25 26 -47 20 -49z m609 -139
c-7 -7 -66 19 -66 29 0 4 5 11 10 14 20 13 9 21 -22 18 l-33 -4 55 52 55 52 3
-78 c2 -42 1 -80 -2 -83z m-730 103 c9 -14 15 -27 13 -29 -10 -8 -79 -16 -79
-9 0 4 -3 18 -6 30 -4 15 -1 22 13 26 35 9 43 7 59 -18z m638 16 c3 -4 -5 -18
-18 -30 -26 -24 -38 -17 -29 17 5 22 37 30 47 13z m-765 -71 c-11 -7 -10 -12
4 -28 16 -18 16 -20 -3 -37 -20 -18 -20 -18 -20 51 0 66 1 68 16 45 14 -19 14
-25 3 -31z m601 -60 c0 -5 -2 -10 -4 -10 -3 0 -8 5 -11 10 -3 6 -1 10 4 10 6
0 11 -4 11 -10z m-390 -15 c0 -8 -4 -15 -10 -15 -5 0 -10 7 -10 15 0 8 5 15
10 15 6 0 10 -7 10 -15z m506 4 c10 -17 -13 -36 -27 -22 -12 12 -4 33 11 33 5
0 12 -5 16 -11z m-606 -9 c0 -5 -4 -10 -10 -10 -5 0 -10 5 -10 10 0 6 5 10 10
10 6 0 10 -4 10 -10z m112 -80 c-4 -36 -30 -70 -53 -70 -20 0 -69 41 -69 59 0
5 20 13 45 17 25 3 45 11 45 16 0 5 8 8 18 6 11 -3 16 -12 14 -28z m488 -1 c0
-31 -37 -61 -72 -57 -29 3 -79 50 -67 63 8 7 112 22 127 17 6 -2 12 -13 12
-23z m349 -779 c17 -22 39 -40 48 -40 37 0 184 -51 180 -63 -2 -6 -42 -19 -90
-29 -269 -54 -402 -108 -606 -246 -84 -57 -161 -106 -170 -110 -9 -3 -42 -23
-74 -44 l-58 -39 6 28 c5 25 4 26 -4 6 -6 -13 -14 -23 -19 -23 -16 0 -49 45
-88 120 -37 72 -122 169 -186 215 -35 24 -35 30 0 62 40 38 117 69 201 83 59
10 87 21 139 56 59 39 112 57 112 37 0 -16 -43 -79 -74 -109 -37 -36 -53 -111
-61 -288 -3 -60 -7 -112 -10 -116 -2 -4 2 -7 10 -7 9 0 15 10 15 24 0 43 141
172 306 279 81 53 168 116 193 138 129 118 177 132 230 66z m170 -247 c-38
-89 -50 -219 -44 -495 6 -295 5 -276 17 -353 18 -118 26 -151 45 -194 9 -20
17 -38 18 -41 8 -32 18 -50 26 -50 5 0 9 -6 9 -13 0 -8 8 -24 18 -35 9 -12 25
-33 36 -48 10 -14 32 -34 48 -44 l30 -18 -64 -45 c-34 -24 -82 -56 -106 -71
l-43 -27 -50 41 c-27 23 -49 46 -49 51 0 132 -10 233 -26 250 -20 22 -54 204
-54 291 0 31 -4 69 -10 83 -20 52 -13 165 15 245 49 142 55 310 11 310 -36 0
-55 -88 -63 -279 l-6 -155 -28 90 c-15 49 -28 107 -29 129 -1 58 -14 74 -34
43 -14 -21 -15 -36 -6 -99 6 -41 14 -87 19 -104 9 -29 9 -28 11 15 l2 45 27
-81 c16 -44 33 -89 38 -100 6 -10 13 -55 17 -99 l7 -80 -20 32 c-27 43 -75 76
-215 148 -114 58 -119 60 -194 59 -65 -1 -101 -9 -228 -52 -84 -29 -157 -52
-163 -52 -14 0 -14 92 0 145 13 48 81 199 92 204 4 1 112 72 238 156 317 212
395 243 601 244 l127 1 -20 -47z m-1203 -21 c53 -39 106 -106 154 -195 22 -41
49 -82 60 -92 11 -10 20 -23 20 -28 0 -6 -20 -54 -45 -107 -44 -94 -65 -170
-65 -236 0 -19 -4 -34 -8 -34 -30 0 -135 36 -202 70 -44 22 -91 40 -105 40
-14 0 -25 5 -25 10 0 20 32 75 66 113 19 20 34 41 34 46 0 5 31 46 70 92 79
93 86 122 10 38 l-49 -54 26 78 c18 54 23 81 16 88 -18 18 -50 -7 -84 -64
l-30 -52 6 60 c13 116 37 187 78 233 26 28 26 28 73 -6z m999 -894 c3 -13 11
-60 19 -106 13 -78 13 -88 -6 -154 -39 -137 -92 -262 -122 -287 -9 -7 -13 -17
-11 -21 3 -5 -5 -19 -17 -32 -64 -67 -220 -261 -277 -345 -42 -61 -82 -108
-110 -127 -75 -53 -91 -70 -37 -42 28 15 43 20 36 11 -24 -28 -2 -27 31 3 19
15 63 50 99 77 36 27 104 87 151 132 47 46 89 79 93 75 4 -4 14 1 21 11 13 18
14 17 29 -10 8 -15 37 -54 64 -86 72 -84 134 -210 126 -253 -5 -26 -2 -35 15
-46 21 -13 38 -57 101 -268 31 -101 34 -107 96 -167 35 -34 64 -69 64 -78 0
-49 -80 -132 -164 -171 -34 -15 -79 -25 -136 -29 -75 -5 -90 -3 -125 15 -35
19 -61 22 -195 26 -263 7 -410 13 -419 18 -4 3 -11 56 -14 118 -12 225 -35
340 -154 783 -27 101 -27 148 -3 482 l14 182 30 5 c17 3 55 8 85 11 30 4 70
13 88 20 18 8 33 11 33 8 0 -3 7 0 15 7 8 7 15 10 15 6 0 -3 25 7 56 24 42 22
70 30 108 30 82 0 166 18 225 47 60 29 151 112 151 138 0 23 19 18 25 -7z
m-1179 -222 c16 -8 40 -17 54 -20 14 -3 36 -8 50 -11 41 -11 72 -16 130 -21
89 -8 83 5 77 -167 -3 -83 -11 -199 -17 -257 -13 -129 -5 -187 54 -393 52
-180 90 -355 105 -487 12 -100 18 -256 10 -264 -2 -3 -36 2 -74 10 -97 21 -90
19 -185 52 -47 16 -88 30 -93 30 -4 1 -24 6 -45 12 -20 5 -63 10 -94 10 -54 0
-58 2 -65 28 -5 15 -8 110 -8 212 0 160 4 207 29 348 16 89 33 162 37 162 5 0
6 13 3 28 -3 16 1 87 10 158 20 163 20 272 1 365 -21 98 -31 219 -18 219 5 0
23 -6 39 -14z m-319 -38 c-3 -7 -5 -2 -5 12 0 14 2 19 5 13 2 -7 2 -19 0 -25z
m1582 -317 c11 -7 6 -15 -20 -39 -30 -27 -34 -29 -37 -12 -4 24 15 60 31 60 7
0 18 -4 26 -9z m130 -25 c18 -19 25 -43 33 -112 6 -60 6 -90 -1 -97 -6 -6 -11
-36 -11 -67 0 -39 -3 -51 -10 -40 -5 8 -10 30 -10 48 0 19 -9 45 -20 59 -15
19 -20 21 -20 9 0 -12 -10 -16 -44 -16 -53 0 -67 15 -81 84 -10 50 -9 52 24
93 27 32 40 41 56 37 13 -3 27 1 34 10 18 21 24 20 50 -8z m134 -11 c36 -17
71 -57 60 -69 -3 -3 -18 -3 -32 0 -22 4 -23 4 -8 -6 46 -30 62 -142 29 -210
-14 -27 -25 -36 -57 -43 -54 -11 -89 -2 -80 21 16 38 22 93 15 149 -5 32 -11
88 -14 125 l-6 67 29 -9 c16 -4 45 -16 64 -25z m97 -444 c0 -5 -13 -37 -30
-72 -16 -35 -32 -75 -35 -89 -3 -14 -12 -54 -19 -89 -9 -37 -15 -116 -15 -189
0 -110 -6 -158 -18 -127 -2 6 -21 38 -43 70 -24 36 -40 72 -40 90 0 17 -11 69
-24 117 -21 77 -22 89 -9 115 20 42 88 106 157 147 62 37 76 42 76 27z m-113
-891 c17 0 15 -17 -10 -85 -18 -47 -127 -142 -127 -109 0 3 7 12 15 20 31 31
12 30 -77 -4 -211 -79 -478 -128 -652 -119 -110 6 -125 12 -126 48 0 13 21 15
158 15 174 0 318 24 501 84 100 32 251 106 251 122 0 14 44 48 48 37 2 -5 11
-9 19 -9z m120 -152 c-6 -51 -6 -52 8 -22 25 55 65 70 65 23 0 -27 -66 -149
-92 -172 -14 -12 -34 -17 -57 -15 -31 3 -36 7 -39 30 -3 22 4 32 38 53 30 19
45 23 54 16 17 -14 28 -2 13 13 -15 15 -10 126 5 126 7 0 8 -19 5 -52z m-73
-45 c-53 -44 -59 -17 -7 31 31 28 39 32 42 18 2 -10 -12 -30 -35 -49z m-1419
12 c50 -8 151 -20 225 -27 74 -6 141 -16 148 -21 6 -5 12 -19 12 -31 l0 -22
-127 13 c-129 13 -309 44 -357 63 -30 11 -38 55 -8 46 9 -3 58 -12 107 -21z"/>
<path d="M1048 4613 c7 -3 16 -2 19 1 4 3 -2 6 -13 5 -11 0 -14 -3 -6 -6z"/>
<path d="M1118 4613 c6 -2 18 -2 25 0 6 3 1 5 -13 5 -14 0 -19 -2 -12 -5z"/>
<path d="M933 4034 c-10 -16 -18 -50 -19 -88 l-3 -61 9 62 c5 34 16 73 25 87
10 14 15 26 11 26 -3 0 -13 -12 -23 -26z"/>
<path d="M1057 3484 c-64 -64 -144 -171 -134 -180 2 -2 24 21 47 53 24 32 73
88 109 126 83 86 64 88 -22 1z"/>
<path d="M1073 3437 c-70 -72 -119 -134 -111 -142 2 -3 46 43 97 101 51 58 91
107 89 110 -2 2 -36 -29 -75 -69z"/>
<path d="M2095 2120 c-3 -5 -1 -10 4 -10 6 0 11 5 11 10 0 6 -2 10 -4 10 -3 0
-8 -4 -11 -10z"/>
</g>
</svg>
